<svg width="412" height="307" viewBox="0 0 412 307" fill="none" xmlns="http://www.w3.org/2000/svg">
<path d="M162.387 256.799C162.387 284.524 122.678 307 73.6936 307C24.7095 307 -15 284.524 -15 256.799C-15 229.073 24.7095 206.597 73.6936 206.597C122.678 206.597 162.387 229.073 162.387 256.799Z" fill="url(#paint0_linear)"/>
<path d="M266.615 256.799C266.615 284.524 226.905 307 177.921 307C128.937 307 89.2276 284.524 89.2276 256.799C89.2276 229.073 128.937 206.597 177.921 206.597C226.905 206.597 266.615 229.073 266.615 256.799Z" fill="url(#paint1_linear)"/>
<path d="M355.81 248.11C355.81 275.835 316.1 298.311 267.116 298.311C218.132 298.311 178.422 275.835 178.422 248.11C178.422 220.385 218.132 197.909 267.116 197.909C316.1 197.909 355.81 220.385 355.81 248.11Z" fill="url(#paint2_linear)"/>
<path d="M443 256.799C443 284.524 403.29 307 354.306 307C305.322 307 265.613 284.524 265.613 256.799C265.613 229.073 305.322 206.597 354.306 206.597C403.29 206.597 443 229.073 443 256.799Z" fill="url(#paint3_linear)"/>
<path d="M0.0328226 0H412.934V231.698H0.0328226V0Z" fill="url(#paint4_linear)"/>
<defs>
<linearGradient id="paint0_linear" x1="214" y1="0" x2="214" y2="307" gradientUnits="userSpaceOnUse">
<stop stop-color="#0E3242"/>
<stop offset="1" stop-color="#5370A7"/>
</linearGradient>
<linearGradient id="paint1_linear" x1="214" y1="0" x2="214" y2="307" gradientUnits="userSpaceOnUse">
<stop stop-color="#0E3242"/>
<stop offset="1" stop-color="#5370A7"/>
</linearGradient>
<linearGradient id="paint2_linear" x1="214" y1="0" x2="214" y2="307" gradientUnits="userSpaceOnUse">
<stop stop-color="#0E3242"/>
<stop offset="1" stop-color="#5370A7"/>
</linearGradient>
<linearGradient id="paint3_linear" x1="214" y1="0" x2="214" y2="307" gradientUnits="userSpaceOnUse">
<stop stop-color="#0E3242"/>
<stop offset="1" stop-color="#5370A7"/>
</linearGradient>
<linearGradient id="paint4_linear" x1="214" y1="0" x2="214" y2="307" gradientUnits="userSpaceOnUse">
<stop stop-color="#0E3242"/>
<stop offset="1" stop-color="#5370A7"/>
</linearGradient>
</defs>
</svg>
