<svg width="412" height="333" viewBox="0 0 412 333" fill="none" xmlns="http://www.w3.org/2000/svg">
<path d="M154.387 282.799C154.387 310.524 114.678 333 65.6936 333C16.7095 333 -23 310.524 -23 282.799C-23 255.073 16.7095 232.597 65.6936 232.597C114.678 232.597 154.387 255.073 154.387 282.799Z" fill="url(#paint0_linear)"/>
<path d="M258.615 282.799C258.615 310.524 218.905 333 169.921 333C120.937 333 81.2276 310.524 81.2276 282.799C81.2276 255.073 120.937 232.597 169.921 232.597C218.905 232.597 258.615 255.073 258.615 282.799Z" fill="url(#paint1_linear)"/>
<path d="M347.81 274.11C347.81 301.835 308.1 324.311 259.116 324.311C210.132 324.311 170.422 301.835 170.422 274.11C170.422 246.385 210.132 223.909 259.116 223.909C308.1 223.909 347.81 246.385 347.81 274.11Z" fill="url(#paint2_linear)"/>
<path d="M435 282.799C435 310.524 395.29 333 346.306 333C297.322 333 257.613 310.524 257.613 282.799C257.613 255.073 297.322 232.597 346.306 232.597C395.29 232.597 435 255.073 435 282.799Z" fill="url(#paint3_linear)"/>
<path d="M-23 0H435V282.799H-23V135V0Z" fill="url(#paint4_linear)"/>
<defs>
<linearGradient id="paint0_linear" x1="206" y1="26" x2="206" y2="333" gradientUnits="userSpaceOnUse">
<stop stop-color="#0E3242"/>
<stop offset="1" stop-color="#5370A7"/>
</linearGradient>
<linearGradient id="paint1_linear" x1="206" y1="26" x2="206" y2="333" gradientUnits="userSpaceOnUse">
<stop stop-color="#0E3242"/>
<stop offset="1" stop-color="#5370A7"/>
</linearGradient>
<linearGradient id="paint2_linear" x1="206" y1="26" x2="206" y2="333" gradientUnits="userSpaceOnUse">
<stop stop-color="#0E3242"/>
<stop offset="1" stop-color="#5370A7"/>
</linearGradient>
<linearGradient id="paint3_linear" x1="206" y1="26" x2="206" y2="333" gradientUnits="userSpaceOnUse">
<stop stop-color="#0E3242"/>
<stop offset="1" stop-color="#5370A7"/>
</linearGradient>
<linearGradient id="paint4_linear" x1="206" y1="26" x2="206" y2="333" gradientUnits="userSpaceOnUse">
<stop stop-color="#0E3242"/>
<stop offset="1" stop-color="#5370A7"/>
</linearGradient>
</defs>
</svg>
